<svg width="13" height="13" viewBox="0 0 13 13" fill="none" xmlns="http://www.w3.org/2000/svg">
<path d="M6.5 0C10.0899 0 13 2.91015 13 6.5C13 10.0899 10.0899 13 6.5 13C2.91015 13 0 10.0899 0 6.5C0 2.91015 2.91015 0 6.5 0ZM6.5 1C3.46243 1 1 3.46243 1 6.5C1 9.53757 3.46243 12 6.5 12C9.53757 12 12 9.53757 12 6.5C12 3.46243 9.53757 1 6.5 1ZM6.5 3C6.77614 3 7 3.22386 7 3.5V6.60742L9.1123 8.88672C9.29999 9.08927 9.28752 9.40606 9.08496 9.59375C8.8824 9.78121 8.56652 9.76888 8.37891 9.56641L6.00098 7H6V3.5C6 3.22386 6.22386 3 6.5 3Z" fill="white"/>
</svg>
